# xmcd CD database file
#
# Track frame offsets:
#	150
#	18753
#	39705
#
# Disc length: 743 seconds
#
# Revision: 1
# Processed by: cddbd v1.5.1PL0 Copyright (c) Steve Scherf et al.
# Submitted via: CDex 1.51
#
DISCID=1902e503
DTITLE=Paula Cole  - I Don't Want to Wait
DYEAR=1994
DGENRE=Rock
TTITLE0=I Don't Want To Wait
TTITLE1=Bethlehem
TTITLE2=Hitler's Brothers
EXTD=Promotion YEAR: 1994
EXTT0=
EXTT1=
EXTT2=
PLAYORDER=
